{
  "accessors": [
    {
      "bufferView": 0,
      "componentType": 5126,
      "count": 678,
      "max": [
        3.068319797515869,
        5.882671356201172,
        -0.117513008415699
      ],
      "min": [
        -3.0683200359344482,
        0.19997400045394897,
        -1.23757004737854
      ],
      "type": "VEC3"
    },
    {
      "bufferView": 1,
      "componentType": 5125,
      "count": 1684,
      "type": "SCALAR"
    },
    {
      "bufferView": 2,
      "componentType": 5126,
      "count": 678,
      "type": "VEC3"
    },
    {
      "bufferView": 3,
      "componentType": 5126,
      "count": 678,
      "type": "VEC4"
    },
    {
      "bufferView": 4,
      "componentType": 5126,
      "count": 678,
      "type": "VEC2"
    },
    {
      "bufferView": 5,
      "componentType": 5126,
      "count": 678,
      "max": [
        3.068319797515869,
        5.882671356201172,
        -0.117513008415699
      ],
      "min": [
        -3.0683200359344482,
        0.19997400045394897,
        -1.23757004737854
      ],
      "type": "VEC3"
    },
    {
      "bufferView": 6,
      "componentType": 5123,
      "count": 75,
      "type": "SCALAR"
    },
    {
      "bufferView": 7,
      "componentType": 5126,
      "count": 678,
      "type": "VEC3"
    },
    {
      "bufferView": 8,
      "componentType": 5126,
      "count": 678,
      "type": "VEC4"
    },
    {
      "bufferView": 9,
      "componentType": 5126,
      "count": 678,
      "type": "VEC2"
    },
    {
      "bufferView": 10,
      "componentType": 5126,
      "count": 11,
      "type": "MAT4"
    },
    {
      "bufferView": 11,
      "componentType": 5123,
      "count": 678,
      "type": "VEC4"
    },
    {
      "bufferView": 12,
      "componentType": 5126,
      "count": 678,
      "type": "VEC4"
    },
    {
      "bufferView": 13,
      "componentType": 5126,
      "count": 102,
      "max": [
        1.9583333730697632
      ],
      "min": [
        3.2091570290049276e-08
      ],
      "type": "SCALAR"
    },
    {
      "bufferView": 14,
      "componentType": 5126,
      "count": 102,
      "type": "VEC4"
    },
    {
      "bufferView": 15,
      "componentType": 5126,
      "count": 102,
      "max": [
        1.9583333730697632
      ],
      "min": [
        3.2091570290049276e-08
      ],
      "type": "SCALAR"
    },
    {
      "bufferView": 16,
      "componentType": 5126,
      "count": 102,
      "type": "VEC4"
    },
    {
      "bufferView": 17,
      "componentType": 5126,
      "count": 97,
      "max": [
        1.9583333730697632
      ],
      "min": [
        0.0
      ],
      "type": "SCALAR"
    },
    {
      "bufferView": 18,
      "componentType": 5126,
      "count": 97,
      "type": "VEC3"
    },
    {
      "bufferView": 19,
      "componentType": 5126,
      "count": 102,
      "max": [
        1.9583333730697632
      ],
      "min": [
        3.2091570290049276e-08
      ],
      "type": "SCALAR"
    },
    {
      "bufferView": 20,
      "componentType": 5126,
      "count": 102,
      "type": "VEC4"
    },
    {
      "bufferView": 21,
      "componentType": 5126,
      "count": 102,
      "max": [
        1.9583333730697632
      ],
      "min": [
        3.2091570290049276e-08
      ],
      "type": "SCALAR"
    },
    {
      "bufferView": 22,
      "componentType": 5126,
      "count": 102,
      "type": "VEC4"
    },
    {
      "bufferView": 23,
      "componentType": 5126,
      "count": 102,
      "max": [
        1.9583333730697632
      ],
      "min": [
        3.2091570290049276e-08
      ],
      "type": "SCALAR"
    },
    {
      "bufferView": 24,
      "componentType": 5126,
      "count": 102,
      "type": "VEC4"
    },
    {
      "bufferView": 25,
      "componentType": 5126,
      "count": 102,
      "max": [
        1.9583333730697632
      ],
      "min": [
        3.2091570290049276e-08
      ],
      "type": "SCALAR"
    },
    {
      "bufferView": 26,
      "componentType": 5126,
      "count": 102,
      "type": "VEC4"
    },
    {
      "bufferView": 27,
      "componentType": 5126,
      "count": 102,
      "max": [
        1.9583333730697632
      ],
      "min": [
        3.2091570290049276e-08
      ],
      "type": "SCALAR"
    },
    {
      "bufferView": 28,
      "componentType": 5126,
      "count": 102,
      "type": "VEC4"
    },
    {
      "bufferView": 29,
      "componentType": 5126,
      "count": 102,
      "max": [
        1.9583333730697632
      ],
      "min": [
        3.2091570290049276e-08
      ],
      "type": "SCALAR"
    },
    {
      "bufferView": 30,
      "componentType": 5126,
      "count": 102,
      "type": "VEC4"
    },
    {
      "bufferView": 31,
      "componentType": 5126,
      "count": 102,
      "max": [
        1.9583333730697632
      ],
      "min": [
        3.2091570290049276e-08
      ],
      "type": "SCALAR"
    },
    {
      "bufferView": 32,
      "componentType": 5126,
      "count": 102,
      "type": "VEC4"
    },
    {
      "bufferView": 33,
      "componentType": 5126,
      "count": 102,
      "max": [
        1.9583333730697632
      ],
      "min": [
        3.2091570290049276e-08
      ],
      "type": "SCALAR"
    },
    {
      "bufferView": 34,
      "componentType": 5126,
      "count": 102,
      "type": "VEC4"
    },
    {
      "bufferView": 35,
      "componentType": 5126,
      "count": 102,
      "max": [
        1.9583333730697632
      ],
      "min": [
        3.2091570290049276e-08
      ],
      "type": "SCALAR"
    },
    {
      "bufferView": 36,
      "componentType": 5126,
      "count": 102,
      "type": "VEC4"
    }
  ],
  "animations": [
    {
      "channels": [
        {
          "sampler": 0,
          "target": {
            "node": 1,
            "path": "rotation"
          }
        },
        {
          "sampler": 1,
          "target": {
            "node": 2,
            "path": "rotation"
          }
        },
        {
          "sampler": 2,
          "target": {
            "node": 3,
            "path": "translation"
          }
        },
        {
          "sampler": 3,
          "target": {
            "node": 3,
            "path": "rotation"
          }
        },
        {
          "sampler": 4,
          "target": {
            "node": 4,
            "path": "rotation"
          }
        },
        {
          "sampler": 5,
          "target": {
            "node": 5,
            "path": "rotation"
          }
        },
        {
          "sampler": 6,
          "target": {
            "node": 6,
            "path": "rotation"
          }
        },
        {
          "sampler": 7,
          "target": {
            "node": 7,
            "path": "rotation"
          }
        },
        {
          "sampler": 8,
          "target": {
            "node": 8,
            "path": "rotation"
          }
        },
        {
          "sampler": 9,
          "target": {
            "node": 9,
            "path": "rotation"
          }
        },
        {
          "sampler": 10,
          "target": {
            "node": 10,
            "path": "rotation"
          }
        },
        {
          "sampler": 11,
          "target": {
            "node": 11,
            "path": "rotation"
          }
        }
      ],
      "name": "Take 001",
      "samplers": [
        {
          "input": 13,
          "interpolation": "LINEAR",
          "output": 14
        },
        {
          "input": 15,
          "interpolation": "LINEAR",
          "output": 16
        },
        {
          "input": 17,
          "interpolation": "LINEAR",
          "output": 18
        },
        {
          "input": 19,
          "interpolation": "LINEAR",
          "output": 20
        },
        {
          "input": 21,
          "interpolation": "LINEAR",
          "output": 22
        },
        {
          "input": 23,
          "interpolation": "LINEAR",
          "output": 24
        },
        {
          "input": 25,
          "interpolation": "LINEAR",
          "output": 26
        },
        {
          "input": 27,
          "interpolation": "LINEAR",
          "output": 28
        },
        {
          "input": 29,
          "interpolation": "LINEAR",
          "output": 30
        },
        {
          "input": 31,
          "interpolation": "LINEAR",
          "output": 32
        },
        {
          "input": 33,
          "interpolation": "LINEAR",
          "output": 34
        },
        {
          "input": 35,
          "interpolation": "LINEAR",
          "output": 36
        }
      ]
    }
  ],
  "asset": {
    "version": "2.0"
  },
  "bufferViews": [
    {
      "buffer": 0,
      "byteLength": 8136,
      "target": 34962
    },
    {
      "buffer": 1,
      "byteLength": 6736,
      "target": 34963
    },
    {
      "buffer": 2,
      "byteLength": 8136,
      "target": 34962
    },
    {
      "buffer": 3,
      "byteLength": 10848,
      "target": 34962
    },
    {
      "buffer": 4,
      "byteLength": 5424,
      "target": 34962
    },
    {
      "buffer": 0,
      "byteLength": 8136,
      "target": 34962
    },
    {
      "buffer": 5,
      "byteLength": 150,
      "target": 34963
    },
    {
      "buffer": 2,
      "byteLength": 8136,
      "target": 34962
    },
    {
      "buffer": 3,
      "byteLength": 10848,
      "target": 34962
    },
    {
      "buffer": 4,
      "byteLength": 5424,
      "target": 34962
    },
    {
      "buffer": 6,
      "byteLength": 704
    },
    {
      "buffer": 7,
      "byteLength": 5424,
      "target": 34962
    },
    {
      "buffer": 8,
      "byteLength": 10848,
      "target": 34962
    },
    {
      "buffer": 9,
      "byteLength": 408
    },
    {
      "buffer": 10,
      "byteLength": 1632
    },
    {
      "buffer": 11,
      "byteLength": 408
    },
    {
      "buffer": 12,
      "byteLength": 1632
    },
    {
      "buffer": 13,
      "byteLength": 388
    },
    {
      "buffer": 14,
      "byteLength": 1164
    },
    {
      "buffer": 15,
      "byteLength": 408
    },
    {
      "buffer": 16,
      "byteLength": 1632
    },
    {
      "buffer": 17,
      "byteLength": 408
    },
    {
      "buffer": 18,
      "byteLength": 1632
    },
    {
      "buffer": 19,
      "byteLength": 408
    },
    {
      "buffer": 20,
      "byteLength": 1632
    },
    {
      "buffer": 21,
      "byteLength": 408
    },
    {
      "buffer": 22,
      "byteLength": 1632
    },
    {
      "buffer": 23,
      "byteLength": 408
    },
    {
      "buffer": 24,
      "byteLength": 1632
    },
    {
      "buffer": 25,
      "byteLength": 408
    },
    {
      "buffer": 26,
      "byteLength": 1632
    },
    {
      "buffer": 27,
      "byteLength": 408
    },
    {
      "buffer": 28,
      "byteLength": 1632
    },
    {
      "buffer": 29,
      "byteLength": 408
    },
    {
      "buffer": 30,
      "byteLength": 1632
    },
    {
      "buffer": 31,
      "byteLength": 408
    },
    {
      "buffer": 32,
      "byteLength": 1632
    }
  ],
  "buffers": [
    {
      "byteLength": 8136,
      "uri": "data:application/octet-stream;base64,"
    },
    {
      "byteLength": 6736,
      "uri": "data:application/octet-stream;base64,"
    },
    {
      "byteLength": 8136,
      "uri": "data:application/octet-stream;base64,"
    },
    {
      "byteLength": 10848,
      "uri": "data:application/octet-stream;base64,"
    },
    {
      "byteLength": 5424,
      "uri": "data:application/octet-stream;base64,"
    },
    {
      "byteLength": 150,
      "uri": "data:application/octet-stream;base64,"
    },
    {
      "byteLength": 704,
      "uri": "data:application/octet-stream;base64,"
    },
    {
      "byteLength": 5424,
      "uri": "data:application/octet-stream;base64,"
    },
    {
      "byteLength": 10848,
      "uri": "data:application/octet-stream;base64,"
    },
    {
      "byteLength": 408,
      "uri": "data:application/octet-stream;base64,"
    },
    {
      "byteLength": 1632,
      "uri": "data:application/octet-stream;base64,"
    },
    {
      "byteLength": 408,
      "uri": "data:application/octet-stream;base64,"
    },
    {
      "byteLength": 1632,
      "uri": "data:application/octet-stream;base64,"
    },
    {
      "byteLength": 388,
      "uri": "data:application/octet-stream;base64,"
    },
    {
      "byteLength": 1164,
      "uri": "data:application/octet-stream;base64,"
    },
    {
      "byteLength": 408,
      "uri": "data:application/octet-stream;base64,"
    },
    {
      "byteLength": 1632,
      "uri": "data:application/octet-stream;base64,"
    },
    {
      "byteLength": 408,
      "uri": "data:application/octet-stream;base64,"
    },
    {
      "byteLength": 1632,
      "uri": "data:application/octet-stream;base64,"
    },
    {
      "byteLength": 408,
      "uri": "data:application/octet-stream;base64,"
    },
    {
      "byteLength": 1632,
      "uri": "data:application/octet-stream;base64,"
    },
    {
      "byteLength": 408,
      "uri": "data:application/octet-stream;base64,"
    },
    {
      "byteLength": 1632,
      "uri": "data:application/octet-stream;base64,"
    },
    {
      "byteLength": 408,
      "uri": "data:application/octet-stream;base64,"
    },
    {
      "byteLength": 1632,
      "uri": "data:application/octet-stream;base64,"
    },
    {
      "byteLength": 408,
      "uri": "data:application/octet-stream;base64,"
    },
    {
      "byteLength": 1632,
      "uri": "data:application/octet-stream;base64,"
    },
    {
      "byteLength": 408,
      "uri": "data:application/octet-stream;base64,"
    },
    {
      "byteLength": 1632,
      "uri": "data:application/octet-stream;base64,"
    },
    {
      "byteLength": 408,
      "uri": "data:application/octet-stream;base64,"
    },
    {
      "byteLength": 1632,
      "uri": "data:application/octet-stream;base64,"
    },
    {
      "byteLength": 408,
      "uri": "data:application/octet-stream;base64,"
    },
    {
      "byteLength": 1632,
      "uri": "data:application/octet-stream;base64,"
    }
  ],
  "materials": [
    {
      "doubleSided": true,
      "name": "aiStandardSurface1",
      "normalTexture" : {
      "index" : 2,
      "scale" : 2
      },
      "alphaTexture" : {"index" : 1},
      "alphaCutoff" : 0.5,
      "alphaMode" : "BLEND",
      "pbrMetallicRoughness": {
        "baseColorTexture" : {"index" : 1},
        "metallicFactor" : 0,
        "metallicRoughnessTexture" : { "index" : 0 },
        "baseColorFactor": [
          1.0,
          1.0,
          1.0,
          1.0
        ]
      }
    }
  ],
  "images": [
    {
         "uri" : "24537916bce446f1a5e37caac0b29a80_R_star_model_only_star_Roughness.png"
    },
    {
         "uri" : "2f3444c8b2c94fc8ae8eba660392721a_RGB_star_model_only_star_BaseColor.png"
    },
    {
         "uri" : "c4c137e1fd654e46b99a92bb5c98a996_N_star_model_only_star_Normal.png"
    },
    {
         "uri" : "e17ea2c5dab64fd0ba1cced093dcb29c_R_star_model_only_star_Metallic.png"
    }
  ],
  "textures": [
    {
         "source" : 0
    },
    {
         "source" : 1
    },
    {
         "source" : 2
    },
    {
         "source" : 3
    }
  ],
  "meshes": [
    {
      "name": "Dipsacaster_pretiosus_aiStandardSurface1_0",
      "primitives": [
        {
          "attributes": {
            "JOINTS_0": 11,
            "NORMAL": 2,
            "POSITION": 0,
            "TANGENT": 3,
            "TEXCOORD_0": 4,
            "WEIGHTS_0": 12
          },
          "indices": 1,
          "mode": 5
        },
        {
          "attributes": {
            "JOINTS_0": 11,
            "NORMAL": 7,
            "POSITION": 5,
            "TANGENT": 8,
            "TEXCOORD_0": 9,
            "WEIGHTS_0": 12
          },
          "indices": 6,
          "mode": 4
        }
      ]
    }
  ],
  "nodes": [
    {
      "mesh": 0,
      "name": "Dipsacaster_pretiosus_aiStandardSurface1_0",
      "skin": 0
    },
    {
      "name": "R_UpperCorner1_02",
      "rotation": [
        0.0,
        0.0,
        0.0,
        1.0
      ],
      "scale": [
        1.0,
        1.0,
        1.0
      ],
      "translation": [
        -1.8442000150680542,
        0.5403800010681152,
        0.0729139968752861
      ]
    },
    {
      "children": [
        1
      ],
      "name": "R_UpperCorner_01",
      "rotation": [
        0.0,
        0.0,
        -0.05283628400678928,
        0.9986031880043088
      ],
      "scale": [
        1.0000003576278687,
        1.0000003576278687,
        1.0
      ],
      "translation": [
        -1.0521800518035889,
        0.4500940144062042,
        -2.404530050625908e-07
      ]
    },
    {
      "name": "UpperCorner1_04",
      "rotation": [
        0.0,
        0.0,
        0.0,
        1.0
      ],
      "scale": [
        1.0,
        1.0,
        1.0
      ],
      "translation": [
        -6.661339735937715e-16,
        2.2120399475097656,
        0.09206890314817429
      ]
    },
    {
      "children": [
        3
      ],
      "name": "UpperCorner_03",
      "rotation": [
        0.0,
        0.0,
        -0.05977890398188027,
        0.9982116422075658
      ],
      "scale": [
        1.0,
        1.0,
        1.0
      ],
      "translation": [
        6.128329843591018e-09,
        0.9581080079078674,
        0.027998000383377075
      ]
    },
    {
      "name": "L_UpperCorner1_06",
      "rotation": [
        0.0,
        0.0,
        3.469445e-18,
        1.0
      ],
      "scale": [
        1.0,
        1.0,
        1.0
      ],
      "translation": [
        1.8442000150680542,
        0.5403839945793152,
        0.07291340082883835
      ]
    },
    {
      "children": [
        5
      ],
      "name": "L_UpperCorner_05",
      "rotation": [
        0.0,
        0.0,
        0.045213807866760755,
        0.9989773328650707
      ],
      "scale": [
        0.9999995827674866,
        0.9999995827674866,
        1.0
      ],
      "translation": [
        1.0275499820709229,
        0.4500940144062042,
        0.0
      ]
    },
    {
      "name": "L_LowerCorner1_08",
      "rotation": [
        0.0,
        0.0,
        0.0,
        1.0
      ],
      "scale": [
        1.0,
        1.0,
        1.0
      ],
      "translation": [
        0.9522619843482971,
        -1.4523199796676636,
        0.07297089695930481
      ]
    },
    {
      "children": [
        7
      ],
      "name": "L_LowerCorner_07",
      "rotation": [
        0.0,
        0.0,
        -0.011621433466875747,
        0.9999324688618609
      ],
      "scale": [
        1.0000001192092896,
        1.0000001192092896,
        1.0
      ],
      "translation": [
        0.7960050106048584,
        -0.8026900291442871,
        -1.1102199806005023e-16
      ]
    },
    {
      "name": "R_RowerCorner1_010",
      "rotation": [
        0.0,
        0.0,
        0.0,
        1.0
      ],
      "scale": [
        1.0,
        1.0,
        1.0
      ],
      "translation": [
        -0.9522600173950195,
        -1.4523199796676636,
        0.07297100126743317
      ]
    },
    {
      "children": [
        9
      ],
      "name": "R_RowerCorner_09",
      "rotation": [
        0.0,
        0.0,
        0.04600575931215621,
        0.9989411744993357
      ],
      "scale": [
        1.0000001192092896,
        1.0000001192092896,
        1.0
      ],
      "translation": [
        -0.8206340074539185,
        -0.8026859760284424,
        -2.404530050625908e-07
      ]
    },
    {
      "children": [
        2,
        4,
        6,
        8,
        10
      ],
      "name": "center_00",
      "rotation": [
        0.0,
        0.0,
        -0.025629924930250084,
        0.9996714995177544
      ],
      "scale": [
        0.9999997615814209,
        0.9999997615814209,
        1.0
      ],
      "translation": [
        0.012314500287175179,
        2.5724399089813232,
        -0.6259869933128357
      ]
    },
    {
      "children": [
        11
      ],
      "name": "Skeleton"
    },
    {
      "children": [
        12
      ],
      "name": "RootNode"
    },
    {
      "children": [
        13
      ],
      "name": "e7b4b75664a54b799ab19e95ce6e9295.fbx",
      "rotation": [
        1.1102230246251565e-16,
        0.0,
        0.0,
        1.0
      ],
      "scale": [
        1.0,
        1.0,
        1.0
      ],
      "translation": [
        0.0,
        0.0,
        0.0
      ]
    }
  ],
  "scene": 0,
  "scenes": [
    {
      "nodes": [
        14,
        0
      ]
    }
  ],
  "skins": [
    {
      "inverseBindMatrices": 10,
      "joints": [
        1,
        2,
        3,
        4,
        5,
        6,
        7,
        8,
        9,
        10,
        11
      ]
    }
  ]
}
