{
  "accessors": [
    {
      "bufferView": 0,
      "componentType": 5126,
      "count": 1069,
      "max": [
        43.45315933227539,
        87.94538116455078,
        68.01026153564453
      ],
      "min": [
        -43.45317077636719,
        -164.17189025878906,
        -78.99752044677734
      ],
      "type": "VEC3"
    },
    {
      "bufferView": 1,
      "componentType": 5125,
      "count": 2425,
      "type": "SCALAR"
    },
    {
      "bufferView": 2,
      "componentType": 5126,
      "count": 1069,
      "type": "VEC3"
    },
    {
      "bufferView": 3,
      "componentType": 5126,
      "count": 1069,
      "type": "VEC4"
    },
    {
      "bufferView": 4,
      "componentType": 5126,
      "count": 1069,
      "type": "VEC2"
    },
    {
      "bufferView": 5,
      "componentType": 5126,
      "count": 1069,
      "max": [
        43.45315933227539,
        87.94538116455078,
        68.01026153564453
      ],
      "min": [
        -43.45317077636719,
        -164.17189025878906,
        -78.99752044677734
      ],
      "type": "VEC3"
    },
    {
      "bufferView": 6,
      "componentType": 5123,
      "count": 78,
      "type": "SCALAR"
    },
    {
      "bufferView": 7,
      "componentType": 5126,
      "count": 1069,
      "type": "VEC3"
    },
    {
      "bufferView": 8,
      "componentType": 5126,
      "count": 1069,
      "type": "VEC4"
    },
    {
      "bufferView": 9,
      "componentType": 5126,
      "count": 1069,
      "type": "VEC2"
    },
    {
      "bufferView": 10,
      "componentType": 5126,
      "count": 17,
      "type": "MAT4"
    },
    {
      "bufferView": 11,
      "componentType": 5123,
      "count": 1069,
      "type": "VEC4"
    },
    {
      "bufferView": 12,
      "componentType": 5126,
      "count": 1069,
      "type": "VEC4"
    },
    {
      "bufferView": 13,
      "componentType": 5126,
      "count": 66,
      "max": [
        3.0
      ],
      "min": [
        0.0
      ],
      "type": "SCALAR"
    },
    {
      "bufferView": 14,
      "componentType": 5126,
      "count": 66,
      "type": "VEC4"
    },
    {
      "bufferView": 15,
      "componentType": 5126,
      "count": 61,
      "max": [
        3.0
      ],
      "min": [
        0.0
      ],
      "type": "SCALAR"
    },
    {
      "bufferView": 16,
      "componentType": 5126,
      "count": 61,
      "type": "VEC3"
    },
    {
      "bufferView": 17,
      "componentType": 5126,
      "count": 68,
      "max": [
        3.0
      ],
      "min": [
        0.0
      ],
      "type": "SCALAR"
    },
    {
      "bufferView": 18,
      "componentType": 5126,
      "count": 68,
      "type": "VEC4"
    },
    {
      "bufferView": 19,
      "componentType": 5126,
      "count": 68,
      "max": [
        3.0
      ],
      "min": [
        0.0
      ],
      "type": "SCALAR"
    },
    {
      "bufferView": 20,
      "componentType": 5126,
      "count": 68,
      "type": "VEC4"
    },
    {
      "bufferView": 21,
      "componentType": 5126,
      "count": 64,
      "max": [
        3.0
      ],
      "min": [
        0.0
      ],
      "type": "SCALAR"
    },
    {
      "bufferView": 22,
      "componentType": 5126,
      "count": 64,
      "type": "VEC4"
    },
    {
      "bufferView": 23,
      "componentType": 5126,
      "count": 55,
      "max": [
        3.0
      ],
      "min": [
        0.0
      ],
      "type": "SCALAR"
    },
    {
      "bufferView": 24,
      "componentType": 5126,
      "count": 55,
      "type": "VEC3"
    },
    {
      "bufferView": 25,
      "componentType": 5126,
      "count": 64,
      "max": [
        3.0
      ],
      "min": [
        0.0
      ],
      "type": "SCALAR"
    },
    {
      "bufferView": 26,
      "componentType": 5126,
      "count": 64,
      "type": "VEC4"
    },
    {
      "bufferView": 27,
      "componentType": 5126,
      "count": 64,
      "max": [
        3.0
      ],
      "min": [
        0.0
      ],
      "type": "SCALAR"
    },
    {
      "bufferView": 28,
      "componentType": 5126,
      "count": 64,
      "type": "VEC4"
    },
    {
      "bufferView": 29,
      "componentType": 5126,
      "count": 64,
      "max": [
        3.0
      ],
      "min": [
        0.0
      ],
      "type": "SCALAR"
    },
    {
      "bufferView": 30,
      "componentType": 5126,
      "count": 64,
      "type": "VEC4"
    },
    {
      "bufferView": 31,
      "componentType": 5126,
      "count": 76,
      "max": [
        3.0
      ],
      "min": [
        0.0
      ],
      "type": "SCALAR"
    },
    {
      "bufferView": 32,
      "componentType": 5126,
      "count": 76,
      "type": "VEC4"
    },
    {
      "bufferView": 33,
      "componentType": 5126,
      "count": 58,
      "max": [
        3.0
      ],
      "min": [
        0.0
      ],
      "type": "SCALAR"
    },
    {
      "bufferView": 34,
      "componentType": 5126,
      "count": 58,
      "type": "VEC3"
    },
    {
      "bufferView": 35,
      "componentType": 5126,
      "count": 74,
      "max": [
        3.0
      ],
      "min": [
        0.0
      ],
      "type": "SCALAR"
    },
    {
      "bufferView": 36,
      "componentType": 5126,
      "count": 74,
      "type": "VEC4"
    },
    {
      "bufferView": 37,
      "componentType": 5126,
      "count": 64,
      "max": [
        3.0
      ],
      "min": [
        0.0
      ],
      "type": "SCALAR"
    },
    {
      "bufferView": 38,
      "componentType": 5126,
      "count": 64,
      "type": "VEC4"
    },
    {
      "bufferView": 39,
      "componentType": 5126,
      "count": 32,
      "max": [
        3.0
      ],
      "min": [
        0.0
      ],
      "type": "SCALAR"
    },
    {
      "bufferView": 40,
      "componentType": 5126,
      "count": 32,
      "type": "VEC3"
    },
    {
      "bufferView": 41,
      "componentType": 5126,
      "count": 66,
      "max": [
        3.0
      ],
      "min": [
        0.0
      ],
      "type": "SCALAR"
    },
    {
      "bufferView": 42,
      "componentType": 5126,
      "count": 66,
      "type": "VEC4"
    },
    {
      "bufferView": 43,
      "componentType": 5126,
      "count": 64,
      "max": [
        3.0
      ],
      "min": [
        0.0
      ],
      "type": "SCALAR"
    },
    {
      "bufferView": 44,
      "componentType": 5126,
      "count": 64,
      "type": "VEC4"
    },
    {
      "bufferView": 45,
      "componentType": 5126,
      "count": 66,
      "max": [
        3.0
      ],
      "min": [
        0.0
      ],
      "type": "SCALAR"
    },
    {
      "bufferView": 46,
      "componentType": 5126,
      "count": 66,
      "type": "VEC4"
    },
    {
      "bufferView": 47,
      "componentType": 5126,
      "count": 64,
      "max": [
        3.0
      ],
      "min": [
        0.0
      ],
      "type": "SCALAR"
    },
    {
      "bufferView": 48,
      "componentType": 5126,
      "count": 64,
      "type": "VEC4"
    }
  ],
  "animations": [
    {
      "channels": [
        {
          "sampler": 0,
          "target": {
            "node": 1,
            "path": "rotation"
          }
        },
        {
          "sampler": 1,
          "target": {
            "node": 2,
            "path": "translation"
          }
        },
        {
          "sampler": 2,
          "target": {
            "node": 2,
            "path": "rotation"
          }
        },
        {
          "sampler": 3,
          "target": {
            "node": 3,
            "path": "rotation"
          }
        },
        {
          "sampler": 4,
          "target": {
            "node": 4,
            "path": "rotation"
          }
        },
        {
          "sampler": 5,
          "target": {
            "node": 5,
            "path": "translation"
          }
        },
        {
          "sampler": 6,
          "target": {
            "node": 5,
            "path": "rotation"
          }
        },
        {
          "sampler": 7,
          "target": {
            "node": 6,
            "path": "rotation"
          }
        },
        {
          "sampler": 8,
          "target": {
            "node": 7,
            "path": "rotation"
          }
        },
        {
          "sampler": 9,
          "target": {
            "node": 9,
            "path": "rotation"
          }
        },
        {
          "sampler": 10,
          "target": {
            "node": 11,
            "path": "translation"
          }
        },
        {
          "sampler": 11,
          "target": {
            "node": 11,
            "path": "rotation"
          }
        },
        {
          "sampler": 12,
          "target": {
            "node": 12,
            "path": "rotation"
          }
        },
        {
          "sampler": 13,
          "target": {
            "node": 14,
            "path": "translation"
          }
        },
        {
          "sampler": 14,
          "target": {
            "node": 14,
            "path": "rotation"
          }
        },
        {
          "sampler": 15,
          "target": {
            "node": 15,
            "path": "rotation"
          }
        },
        {
          "sampler": 16,
          "target": {
            "node": 16,
            "path": "rotation"
          }
        },
        {
          "sampler": 17,
          "target": {
            "node": 17,
            "path": "rotation"
          }
        }
      ],
      "name": "Take 001",
      "samplers": [
        {
          "input": 13,
          "interpolation": "LINEAR",
          "output": 14
        },
        {
          "input": 15,
          "interpolation": "LINEAR",
          "output": 16
        },
        {
          "input": 17,
          "interpolation": "LINEAR",
          "output": 18
        },
        {
          "input": 19,
          "interpolation": "LINEAR",
          "output": 20
        },
        {
          "input": 21,
          "interpolation": "LINEAR",
          "output": 22
        },
        {
          "input": 23,
          "interpolation": "LINEAR",
          "output": 24
        },
        {
          "input": 25,
          "interpolation": "LINEAR",
          "output": 26
        },
        {
          "input": 27,
          "interpolation": "LINEAR",
          "output": 28
        },
        {
          "input": 29,
          "interpolation": "LINEAR",
          "output": 30
        },
        {
          "input": 31,
          "interpolation": "LINEAR",
          "output": 32
        },
        {
          "input": 33,
          "interpolation": "LINEAR",
          "output": 34
        },
        {
          "input": 35,
          "interpolation": "LINEAR",
          "output": 36
        },
        {
          "input": 37,
          "interpolation": "LINEAR",
          "output": 38
        },
        {
          "input": 39,
          "interpolation": "LINEAR",
          "output": 40
        },
        {
          "input": 41,
          "interpolation": "LINEAR",
          "output": 42
        },
        {
          "input": 43,
          "interpolation": "LINEAR",
          "output": 44
        },
        {
          "input": 45,
          "interpolation": "LINEAR",
          "output": 46
        },
        {
          "input": 47,
          "interpolation": "LINEAR",
          "output": 48
        }
      ]
    }
  ],
  "asset": {
    "version": "2.0"
  },
  "bufferViews": [
    {
      "buffer": 0,
      "byteLength": 12828,
      "target": 34962
    },
    {
      "buffer": 1,
      "byteLength": 9700,
      "target": 34963
    },
    {
      "buffer": 2,
      "byteLength": 12828,
      "target": 34962
    },
    {
      "buffer": 3,
      "byteLength": 17104,
      "target": 34962
    },
    {
      "buffer": 4,
      "byteLength": 8552,
      "target": 34962
    },
    {
      "buffer": 0,
      "byteLength": 12828,
      "target": 34962
    },
    {
      "buffer": 5,
      "byteLength": 156,
      "target": 34963
    },
    {
      "buffer": 2,
      "byteLength": 12828,
      "target": 34962
    },
    {
      "buffer": 3,
      "byteLength": 17104,
      "target": 34962
    },
    {
      "buffer": 4,
      "byteLength": 8552,
      "target": 34962
    },
    {
      "buffer": 6,
      "byteLength": 1088
    },
    {
      "buffer": 7,
      "byteLength": 8552,
      "target": 34962
    },
    {
      "buffer": 8,
      "byteLength": 17104,
      "target": 34962
    },
    {
      "buffer": 9,
      "byteLength": 264
    },
    {
      "buffer": 10,
      "byteLength": 1056
    },
    {
      "buffer": 11,
      "byteLength": 244
    },
    {
      "buffer": 12,
      "byteLength": 732
    },
    {
      "buffer": 13,
      "byteLength": 272
    },
    {
      "buffer": 14,
      "byteLength": 1088
    },
    {
      "buffer": 15,
      "byteLength": 272
    },
    {
      "buffer": 16,
      "byteLength": 1088
    },
    {
      "buffer": 17,
      "byteLength": 256
    },
    {
      "buffer": 18,
      "byteLength": 1024
    },
    {
      "buffer": 19,
      "byteLength": 220
    },
    {
      "buffer": 20,
      "byteLength": 660
    },
    {
      "buffer": 21,
      "byteLength": 256
    },
    {
      "buffer": 22,
      "byteLength": 1024
    },
    {
      "buffer": 23,
      "byteLength": 256
    },
    {
      "buffer": 24,
      "byteLength": 1024
    },
    {
      "buffer": 25,
      "byteLength": 256
    },
    {
      "buffer": 26,
      "byteLength": 1024
    },
    {
      "buffer": 27,
      "byteLength": 304
    },
    {
      "buffer": 28,
      "byteLength": 1216
    },
    {
      "buffer": 29,
      "byteLength": 232
    },
    {
      "buffer": 30,
      "byteLength": 696
    },
    {
      "buffer": 31,
      "byteLength": 296
    },
    {
      "buffer": 32,
      "byteLength": 1184
    },
    {
      "buffer": 33,
      "byteLength": 256
    },
    {
      "buffer": 34,
      "byteLength": 1024
    },
    {
      "buffer": 35,
      "byteLength": 128
    },
    {
      "buffer": 36,
      "byteLength": 384
    },
    {
      "buffer": 37,
      "byteLength": 264
    },
    {
      "buffer": 38,
      "byteLength": 1056
    },
    {
      "buffer": 39,
      "byteLength": 256
    },
    {
      "buffer": 40,
      "byteLength": 1024
    },
    {
      "buffer": 41,
      "byteLength": 264
    },
    {
      "buffer": 42,
      "byteLength": 1056
    },
    {
      "buffer": 43,
      "byteLength": 256
    },
    {
      "buffer": 44,
      "byteLength": 1024
    }
  ],
  "buffers": [
    {
      "byteLength": 12828,
      "uri": "data:application/octet-stream;base64,"
    },
    {
      "byteLength": 9700,
      "uri": "data:application/octet-stream;base64,"
    },
    {
      "byteLength": 12828,
      "uri": "data:application/octet-stream;base64,"
    },
    {
      "byteLength": 17104,
      "uri": "data:application/octet-stream;base64,"
    },
    {
      "byteLength": 8552,
      "uri": "data:application/octet-stream;base64,"
    },
    {
      "byteLength": 156,
      "uri": "data:application/octet-stream;base64,"
    },
    {
      "byteLength": 1088,
      "uri": "data:application/octet-stream;base64,"
    },
    {
      "byteLength": 8552,
      "uri": "data:application/octet-stream;base64,"
    },
    {
      "byteLength": 17104,
      "uri": "data:application/octet-stream;base64,"
    },
    {
      "byteLength": 264,
      "uri": "data:application/octet-stream;base64,"
    },
    {
      "byteLength": 1056,
      "uri": "data:application/octet-stream;base64,"
    },
    {
      "byteLength": 244,
      "uri": "data:application/octet-stream;base64,"
    },
    {
      "byteLength": 732,
      "uri": "data:application/octet-stream;base64,"
    },
    {
      "byteLength": 272,
      "uri": "data:application/octet-stream;base64,"
    },
    {
      "byteLength": 1088,
      "uri": "data:application/octet-stream;base64,"
    },
    {
      "byteLength": 272,
      "uri": "data:application/octet-stream;base64,"
    },
    {
      "byteLength": 1088,
      "uri": "data:application/octet-stream;base64,"
    },
    {
      "byteLength": 256,
      "uri": "data:application/octet-stream;base64,"
    },
    {
      "byteLength": 1024,
      "uri": "data:application/octet-stream;base64,"
    },
    {
      "byteLength": 220,
      "uri": "data:application/octet-stream;base64,"
    },
    {
      "byteLength": 660,
      "uri": "data:application/octet-stream;base64,"
    },
    {
      "byteLength": 256,
      "uri": "data:application/octet-stream;base64,"
    },
    {
      "byteLength": 1024,
      "uri": "data:application/octet-stream;base64,"
    },
    {
      "byteLength": 256,
      "uri": "data:application/octet-stream;base64,"
    },
    {
      "byteLength": 1024,
      "uri": "data:application/octet-stream;base64,"
    },
    {
      "byteLength": 256,
      "uri": "data:application/octet-stream;base64,"
    },
    {
      "byteLength": 1024,
      "uri": "data:application/octet-stream;base64,"
    },
    {
      "byteLength": 304,
      "uri": "data:application/octet-stream;base64,"
    },
    {
      "byteLength": 1216,
      "uri": "data:application/octet-stream;base64,"
    },
    {
      "byteLength": 232,
      "uri": "data:application/octet-stream;base64,"
    },
    {
      "byteLength": 696,
      "uri": "data:application/octet-stream;base64,"
    },
    {
      "byteLength": 296,
      "uri": "data:application/octet-stream;base64,"
    },
    {
      "byteLength": 1184,
      "uri": "data:application/octet-stream;base64,"
    },
    {
      "byteLength": 256,
      "uri": "data:application/octet-stream;base64,"
    },
    {
      "byteLength": 1024,
      "uri": "data:application/octet-stream;base64,"
    },
    {
      "byteLength": 128,
      "uri": "data:application/octet-stream;base64,"
    },
    {
      "byteLength": 384,
      "uri": "data:application/octet-stream;base64,"
    },
    {
      "byteLength": 264,
      "uri": "data:application/octet-stream;base64,"
    },
    {
      "byteLength": 1056,
      "uri": "data:application/octet-stream;base64,"
    },
    {
      "byteLength": 256,
      "uri": "data:application/octet-stream;base64,"
    },
    {
      "byteLength": 1024,
      "uri": "data:application/octet-stream;base64,"
    },
    {
      "byteLength": 264,
      "uri": "data:application/octet-stream;base64,"
    },
    {
      "byteLength": 1056,
      "uri": "data:application/octet-stream;base64,"
    },
    {
      "byteLength": 256,
      "uri": "data:application/octet-stream;base64,"
    },
    {
      "byteLength": 1024,
      "uri": "data:application/octet-stream;base64,"
    }
  ],
  "materials": [
    {
      "doubleSided": true,
      "name": "01 - Default",
      "pbrMetallicRoughness": {
        "baseColorFactor": [
          0.5882350206375122,
          0.5882350206375122,
          0.5882350206375122,
          1.0
        ]
      }
    }
  ],
  "meshes": [
    {
      "name": "Cylinder01_01 - Default_0",
      "primitives": [
        {
          "attributes": {
            "JOINTS_0": 11,
            "NORMAL": 2,
            "POSITION": 0,
            "TANGENT": 3,
            "TEXCOORD_0": 4,
            "WEIGHTS_0": 12
          },
          "indices": 1,
          "material": 0,
          "mode": 5
        },
        {
          "attributes": {
            "JOINTS_0": 11,
            "NORMAL": 7,
            "POSITION": 5,
            "TANGENT": 8,
            "TEXCOORD_0": 9,
            "WEIGHTS_0": 12
          },
          "indices": 6,
          "material": 0,
          "mode": 4
        }
      ]
    }
  ],
  "nodes": [
    {
      "mesh": 0,
      "name": "Cylinder01_01 - Default_0",
      "skin": 0
    },
    {
      "name": "Bone08_03",
      "rotation": [
        -2.3283124999999746e-10,
        6.6647999999999905e-09,
        8.568149999999906e-08,
        0.9999999999999963
      ],
      "scale": [
        1.0,
        1.0,
        1.0
      ],
      "translation": [
        19.6072998046875,
        -3.814699994109105e-06,
        -3.814699994109105e-06
      ]
    },
    {
      "children": [
        1
      ],
      "name": "Bone07_02",
      "rotation": [
        -0.0024895184069574283,
        -0.24024422081523109,
        -0.03873820776442914,
        0.9699360122823529
      ],
      "scale": [
        1.0,
        0.9999997019767761,
        0.9999997615814209
      ],
      "translation": [
        33.18389892578125,
        -8.881779961836516e-16,
        9.536739753457368e-07
      ]
    },
    {
      "children": [
        2
      ],
      "name": "Bone06_01",
      "rotation": [
        0.007327987019102972,
        -0.2255004799771333,
        0.024775614108344862,
        0.9739004071679814
      ],
      "scale": [
        0.9999995827674866,
        1.0000001192092896,
        1.0000003576278687
      ],
      "translation": [
        25.027599334716797,
        4.768370217789197e-06,
        3.576280107608909e-07
      ]
    },
    {
      "children": [
        3
      ],
      "name": "Bone05_00",
      "rotation": [
        0.0014272282118116153,
        -0.08050275299734602,
        0.017668579112096804,
        0.9965967545059089
      ],
      "scale": [
        0.9999997615814209,
        1.0000004768371582,
        0.999999463558197
      ],
      "translation": [
        34.7307014465332,
        -9.536739753457368e-07,
        1.4305099966804846e-06
      ]
    },
    {
      "children": [
        4
      ],
      "name": "Bone04_07",
      "rotation": [
        0.0007785676405012406,
        -0.11162046240674388,
        0.006931382198754443,
        0.9937264322465075
      ],
      "scale": [
        1.0000001192092896,
        1.0000003576278687,
        1.0000007152557373
      ],
      "translation": [
        35.409400939941406,
        4.768369876728684e-07,
        0.0
      ]
    },
    {
      "children": [
        5
      ],
      "name": "Bone03_06",
      "rotation": [
        1.4606059713153686e-09,
        2.6299717765582473e-09,
        -0.03491910660963722,
        0.9993901420334288
      ],
      "scale": [
        0.9999997019767761,
        0.9999997019767761,
        1.0
      ],
      "translation": [
        36.269100189208984,
        -5.149839853402227e-05,
        1.9073499970545527e-06
      ]
    },
    {
      "children": [
        6
      ],
      "name": "Bone02_04",
      "rotation": [
        0.028917335570047352,
        0.02711604352194545,
        -0.7288876672021752,
        0.6834846570976384
      ],
      "scale": [
        1.0000001192092896,
        0.9999997019767761,
        1.0
      ],
      "translation": [
        87.62460327148438,
        -8.392330346396193e-05,
        3.525939860082872e-07
      ]
    },
    {
      "name": "Bone11_010",
      "rotation": [
        1.862645e-09,
        5.500599999999999e-09,
        1.862645e-09,
        1.0
      ],
      "scale": [
        1.0,
        1.0,
        1.0
      ],
      "translation": [
        17.874500274658203,
        -3.814699994109105e-06,
        0.0
      ]
    },
    {
      "children": [
        8
      ],
      "name": "Bone10_09",
      "rotation": [
        -0.00017323306048366494,
        -0.006795487018351315,
        0.11422936701415015,
        0.9934311466116296
      ],
      "scale": [
        1.000000238418579,
        0.9999995231628418,
        1.0000004768371582
      ],
      "translation": [
        41.33039855957031,
        -3.814699994109105e-06,
        1.9073499970545527e-06
      ]
    },
    {
      "name": "Bone13_012",
      "rotation": [
        9.31325000000037e-10,
        4.656612499999999e-09,
        -1.490115e-08,
        0.9999999999999999
      ],
      "scale": [
        1.0,
        1.0,
        1.0
      ],
      "translation": [
        19.38279914855957,
        3.051759995287284e-05,
        1.9073499970545527e-06
      ]
    },
    {
      "children": [
        10
      ],
      "name": "Bone12_011",
      "rotation": [
        -0.00041291011315422774,
        0.0008793983658427115,
        0.4087360865418876,
        0.9126521066223435
      ],
      "scale": [
        1.0,
        0.999999463558197,
        0.9999998807907104
      ],
      "translation": [
        41.33039855957031,
        0.0,
        1.9073499970545527e-06
      ]
    },
    {
      "children": [
        9,
        11
      ],
      "name": "Bone09_08",
      "rotation": [
        0.0456101759321036,
        -0.060201003891359677,
        0.6021609782310567,
        0.7947941288646811
      ],
      "scale": [
        1.0000007152557373,
        1.0000003576278687,
        0.9999998807907104
      ],
      "translation": [
        87.62439727783203,
        -0.00021362300321925431,
        -1.68257005550565e-11
      ]
    },
    {
      "children": [
        7,
        12
      ],
      "name": "Bone01_05",
      "rotation": [
        -0.7066658006666432,
        0.02496880992639177,
        0.7066658073162344,
        -0.02496880992639177
      ],
      "scale": [
        0.9999997615814209,
        0.9999997615814209,
        1.0
      ],
      "translation": [
        -4.216689831082476e-06,
        -98.34020233154297,
        75.62670135498047
      ]
    },
    {
      "name": "Bone15_014",
      "rotation": [
        3.72529e-09,
        1.164155e-10,
        3.0559e-10,
        1.0
      ],
      "scale": [
        1.0,
        1.0,
        1.0
      ],
      "translation": [
        39.09389877319336,
        7.629389983776491e-06,
        0.0
      ]
    },
    {
      "children": [
        14
      ],
      "name": "Bone14_013",
      "rotation": [
        -0.05217848218045139,
        -0.00047308574316858325,
        -0.00905410385399279,
        0.9985966179547505
      ],
      "scale": [
        1.0000003576278687,
        1.0000001192092896,
        0.9999996423721313
      ],
      "translation": [
        13.179900169372559,
        -95.69509887695313,
        -26.464000701904297
      ]
    },
    {
      "name": "Bone17_016",
      "rotation": [
        -3.469445e-18,
        -6.9389e-18,
        -1.012815e-08,
        0.9999999999999999
      ],
      "scale": [
        1.0,
        1.0,
        1.0
      ],
      "translation": [
        39.99480056762695,
        -3.814699994109105e-06,
        3.814699994109105e-06
      ]
    },
    {
      "children": [
        16
      ],
      "name": "Bone16_015",
      "rotation": [
        -0.030194699387132456,
        0.04255689840071025,
        0.8144589194081605,
        0.5778701057538063
      ],
      "scale": [
        1.000000238418579,
        1.0,
        0.9999995827674866
      ],
      "translation": [
        -14.016799926757813,
        -95.27899932861328,
        -26.507600784301758
      ]
    },
    {
      "children": [
        13,
        15,
        17
      ],
      "name": "Skeleton"
    },
    {
      "children": [
        18
      ],
      "name": "RootNode"
    },
    {
      "children": [
        19
      ],
      "name": "94db903bee23411888f9ed830c28203e.fbx",
      "rotation": [
        0.7071067811865476,
        0.0,
        0.0,
        0.7071067811865475
      ],
      "scale": [
        1.0,
        1.0,
        1.0
      ],
      "translation": [
        0.0,
        0.0,
        0.0
      ]
    }
  ],
  "scene": 0,
  "scenes": [
    {
      "nodes": [
        20,
        0
      ]
    }
  ],
  "skins": [
    {
      "inverseBindMatrices": 10,
      "joints": [
        1,
        2,
        3,
        4,
        5,
        6,
        7,
        8,
        9,
        10,
        11,
        12,
        13,
        14,
        15,
        16,
        17
      ]
    }
  ]
}
